# xmcd
#
# Track frame offsets:
#	150
#	11865
#	23407
#	35752
#	47510
#	59790
#	74167
#	86767
#	99872
#	111692
#	123395
#	135385
#	145830
#	156867
#	171820
#	183620
#	194857
#	207515
#	219970
#	231757
#	245447
#	259502
#	273735
#	285580
#	298972
#	312515
#
# Disc length: 4319 seconds
#
# Revision: 1
# Processed by: cddbd v1.4PL0 Copyright (c) Steve Scherf et al.
# Submitted via: CDmax 1.8
#
DISCID=a110dd1a
DTITLE=Muddy Waters - Rollin' Stone: The Golden Anniversary Collection, CD One
DYEAR=2000
DGENRE=Blues
TTITLE0=Gypsy Woman
TTITLE1=Little Anna Mae
TTITLE2=Good Lookin' Woman
TTITLE3=Mean Disposition
TTITLE4=I Can't Be Satisfied
TTITLE5=I Feel Like Going Home
TTITLE6=Train Fare Home
TTITLE7=Down South Blues
TTITLE8=Kind Hearted Woman
TTITLE9=Sittin' Here And Drinkin' (Whiskey Blues)
TTITLE10=You're Gonna Miss Me
TTITLE11=Mean Red Spider
TTITLE12=Standin' Here Tremblin'
TTITLE13=Streamline Woman
TTITLE14=Hard Days
TTITLE15=Muddy Jumps One
TTITLE16=Little Geneva
TTITLE17=Canary Bird
TTITLE18=Burying Ground
TTITLE19=You Gonna Need My Help
TTITLE20=Screamin' and Cryin'
TTITLE21=Where's My Woman Been
TTITLE22=Last Time I Fool Around With You
TTITLE23=Walkin' Blues
TTITLE24=Rollin' And Tumblin' Part 1
TTITLE25=Rollin' And Tumblin' Part 2
EXTD=Remarkably, it's been fifty years since Muddy Waters recorded the song th
EXTD=at gave its name to a major music publication, an enduring English rock a
EXTD=nd roll band, and the title of a Bob Dylan Song.  this fifty track compil
EXTD=ation, covering the first half-hundred tracks Muddy waxed for the Aristoc
EXTD=rat and Chess labels, celebrates that anniversary, and the career of them
EXTD=an who gave Chicago blues its greatest impetus.
EXTT0=
EXTT1=
EXTT2=
EXTT3=
EXTT4=
EXTT5=
EXTT6=
EXTT7=
EXTT8=
EXTT9=
EXTT10=
EXTT11=
EXTT12=
EXTT13=
EXTT14=
EXTT15=
EXTT16=
EXTT17=
EXTT18=
EXTT19=
EXTT20=
EXTT21=
EXTT22=
EXTT23=
EXTT24=
EXTT25=
PLAYORDER=
